<svg width="97" height="12" viewBox="0 0 97 12" fill="none" xmlns="http://www.w3.org/2000/svg">
<path d="M0 11.7307H6.52484C9.09814 11.7307 10.4153 10.5995 10.4153 8.44607V8.41256C10.4153 6.81216 9.5779 5.84019 7.96414 5.56368V5.41286C9.31621 5.16149 10.0228 4.30683 10.0228 2.91591V2.87401C10.0228 0.980348 8.79283 0 6.38527 0H0V11.7307ZM2.5733 4.80119V1.65905H5.61764C6.84759 1.65905 7.4582 2.17855 7.4582 3.20079V3.23431C7.4582 4.27331 6.84759 4.80119 5.61764 4.80119H2.5733ZM2.5733 10.0632V6.32618H5.69615C7.04822 6.32618 7.7199 6.94623 7.7199 8.16119V8.1947C7.7199 9.4348 7.04822 10.0632 5.69615 10.0632H2.5733Z" fill="white"/>
<path d="M12.8393 0V11.7307H15.3777V0H12.8393Z" fill="white"/>
<path d="M20.689 11.9485C22.7389 11.9485 24.2305 11.0687 24.7801 9.57724L24.9545 9.61914C24.6231 11.2447 24.972 11.9485 26.9783 11.9485C27.2313 11.9485 27.4842 11.9234 27.6936 11.8899L27.9902 10.4403L27.554 10.4319C27.0742 10.4235 26.9347 10.3146 26.9347 9.71969V5.68937C26.9347 3.69516 25.5564 2.73995 22.6168 2.73995C19.4939 2.73995 17.915 3.92139 18.0459 5.96588L20.5494 6.16697C20.4447 4.81795 21.16 4.20628 22.5644 4.20628C23.8205 4.20628 24.4137 4.65037 24.4137 5.66423V6.1586L21.9364 6.59431C19.459 7.03839 17.8191 7.79251 17.8191 9.6359V9.66104C17.8191 11.119 18.8484 11.9485 20.689 11.9485ZM21.7008 10.323C20.846 10.323 20.3837 10.0297 20.3837 9.42642V9.40966C20.3837 8.54662 21.1949 8.1947 22.7999 7.89306L24.4137 7.59141V8.00198C24.4137 9.35101 23.1489 10.323 21.7008 10.323Z" fill="white"/>
<path d="M30.1263 11.7307H32.6647V7.64169C32.6647 5.66423 33.6329 4.44089 35.238 4.44089C36.433 4.44089 37.0262 5.0358 37.0262 6.17535V11.7307H39.5646V5.58882C39.5646 3.74543 38.4393 2.77346 36.3458 2.77346C34.4442 2.77346 33.1444 3.57785 32.3768 5.25366L32.2023 5.17825C32.5513 4.18114 32.6734 3.58623 32.6734 2.93266H30.1263V11.7307Z" fill="white"/>
<path d="M47.1177 11.9401C50.1097 11.9401 51.7845 10.7838 52.0375 8.54662L49.4729 8.27011C49.3683 9.67779 48.5657 10.39 47.1264 10.39C45.5127 10.39 44.6753 9.41804 44.6753 7.49924V7.08867C44.6753 5.21176 45.5214 4.26493 47.1003 4.26493C48.557 4.26493 49.3159 5.04418 49.4293 6.60268L51.959 6.32618C51.7584 3.95491 50.1446 2.72319 47.109 2.72319C43.8117 2.72319 42.0758 4.27331 42.0758 7.23949V7.34842C42.0758 10.3649 43.7942 11.9401 47.1177 11.9401Z" fill="white"/>
<path d="M54.5661 11.7307H57.1045V7.64169C57.1045 5.66423 58.0641 4.44927 59.6778 4.44927C60.8729 4.44927 61.4661 5.0358 61.4661 6.17535V11.7307H64.0045V5.58882C64.0045 3.74543 62.8705 2.77346 60.7857 2.77346C58.8666 2.77346 57.5756 3.57785 56.8167 5.24528L56.6335 5.17825C56.9737 4.2398 57.0958 3.54433 57.1045 2.71481V0H54.5661V11.7307Z" fill="white"/>
<path d="M69.2722 11.9485C71.3221 11.9485 72.8137 11.0687 73.3633 9.57724L73.5377 9.61914C73.2063 11.2447 73.5552 11.9485 75.5615 11.9485C75.8144 11.9485 76.0674 11.9234 76.2768 11.8899L76.5733 10.4403L76.1372 10.4319C75.6574 10.4235 75.5179 10.3146 75.5179 9.71969V5.68937C75.5179 3.69516 74.1396 2.73995 71.1999 2.73995C68.0771 2.73995 66.4982 3.92139 66.6291 5.96588L69.1326 6.16697C69.0279 4.81795 69.7432 4.20628 71.1476 4.20628C72.4037 4.20628 72.9969 4.65037 72.9969 5.66423V6.1586L70.5196 6.59431C68.0422 7.03839 66.4023 7.79251 66.4023 9.6359V9.66104C66.4023 11.119 67.4316 11.9485 69.2722 11.9485ZM70.284 10.323C69.4292 10.323 68.9669 10.0297 68.9669 9.42642V9.40966C68.9669 8.54662 69.7781 8.1947 71.3831 7.89306L72.9969 7.59141V8.00198C72.9969 9.35101 71.7321 10.323 70.284 10.323Z" fill="white"/>
<path d="M78.7094 11.7307H81.2478V8.05226C81.2478 5.7564 81.9893 4.91012 83.9258 4.77605L85.1732 4.68388L84.8766 2.65616C82.8267 2.80698 81.8759 3.42703 80.9338 5.25366L80.7681 5.17825C81.1781 4.00518 81.274 3.53596 81.2566 2.93266H78.7094V11.7307Z" fill="white"/>
<path d="M90.7811 11.8899C92.6653 11.8899 93.8952 11.052 94.5145 9.53535L94.6977 9.594C94.4012 10.5157 94.2441 11.2447 94.2354 11.7307H96.8V0H94.2616V2.38803C94.2616 3.30972 94.3924 4.05546 94.7065 5.06932L94.532 5.13635C93.9127 3.62812 92.674 2.7567 90.7811 2.7567C88.1642 2.7567 86.7859 4.29007 86.7859 7.22273V7.43221C86.7859 10.3565 88.1642 11.8899 90.7811 11.8899ZM91.7406 10.3816C90.1705 10.3816 89.3505 9.41804 89.3505 7.516V7.13056C89.3505 5.22014 90.1705 4.24817 91.7406 4.24817C93.3806 4.24817 94.2616 5.27042 94.2616 7.17246V7.47411C94.2616 9.36777 93.3806 10.3816 91.7406 10.3816Z" fill="white"/>
</svg>
